<svg width="14" height="14" viewBox="0 0 14 14" fill="none" xmlns="http://www.w3.org/2000/svg">
<path d="M11.0833 2.33332H9.33333V1.16666H8.16667V2.33332H5.83333V1.16666H4.66667V2.33332H2.91667C2.27325 2.33332 1.75 2.85657 1.75 3.49999V11.6667C1.75 12.3101 2.27325 12.8333 2.91667 12.8333H11.0833C11.7267 12.8333 12.25 12.3101 12.25 11.6667V3.49999C12.25 2.85657 11.7267 2.33332 11.0833 2.33332ZM2.91667 11.6667V4.08332H4.66667H5.83333H8.16667H9.33333H11.0833V3.49999L11.0845 11.6667H2.91667Z" fill="#94ACAB"/>
<path d="M9.11633 7.1069L8.06628 6.05744L8.86585 5.25742L9.91591 6.30688L9.11633 7.1069Z" fill="#94ACAB"/>
<path d="M4.66956 9.45059V10.5H5.71897L8.62164 7.60084L7.57222 6.55142L4.66956 9.45059Z" fill="#94ACAB"/>
</svg>
