<svg width="20" height="20" viewBox="0 0 20 20" fill="none" xmlns="http://www.w3.org/2000/svg">
<path d="M0 14.2348C0 14.5589 0 15.5199 0 15.7317C0 15.9435 0.125684 16.3057 0.580406 16.3057C0.929214 16.3057 3.71403 16.3057 4.98994 16.3057C5.37617 16.3057 5.62542 16.3057 5.62542 16.3057H5.73486C5.73486 16.3057 5.8083 16.3057 5.92621 16.3057C5.92621 16.6475 5.92621 16.9582 5.92621 17.0775C5.92621 17.3395 6.08155 17.7878 6.64431 17.7878C7.07643 17.7878 10.5342 17.7878 12.1137 17.7878C12.5917 17.7878 12.9017 17.7878 12.9017 17.7878H13.0372C13.0372 17.7878 13.3409 17.7878 13.8118 17.7878C15.3857 17.7878 18.8491 17.7878 19.2819 17.7878C19.844 17.7878 20 17.3402 20 17.0775C20 16.8148 20 15.6265 20 15.2254C20 14.8244 19.8581 14.3795 19.2819 14.1324C18.5532 13.8132 16.5995 13.1072 15.3723 12.7449C15.2777 12.7146 15.2614 12.7096 15.2614 12.2888C15.2614 11.8355 15.3137 11.5142 15.4238 11.2784C15.5756 10.9564 15.755 10.4141 15.8185 9.92834C15.9993 9.71934 16.2443 9.30698 16.4018 8.5211C16.5409 7.82843 16.4759 7.57635 16.3841 7.33982C16.3742 7.3151 16.3636 7.29039 16.3566 7.26214C16.3227 7.10327 16.3693 6.2595 16.4893 5.60425C16.5712 5.15517 16.4681 4.20054 15.8496 3.40972C15.4591 2.91051 14.7114 2.29692 13.3691 2.2129L12.6207 2.21219C11.2558 2.29763 10.5087 2.91051 10.1183 3.40972C9.49973 4.19983 9.39735 5.15517 9.47926 5.60425C9.59788 6.25879 9.6459 7.10257 9.61059 7.26497C9.60353 7.28968 9.59294 7.3144 9.58376 7.33911C9.49197 7.57565 9.42771 7.82772 9.5654 8.5204C9.72286 9.30628 9.96858 9.71863 10.1486 9.92763C10.2129 10.4134 10.3922 10.9557 10.5433 11.2777C10.6831 11.5742 10.8258 11.9245 10.8258 12.2726C10.8258 12.6941 10.8095 12.699 10.7086 12.7308C10.4558 12.805 10.1698 12.8946 9.86902 12.9907C9.16011 12.7273 8.26831 12.4194 7.62154 12.2281C7.54457 12.2041 7.53186 12.1998 7.53186 11.8595C7.53186 11.493 7.57423 11.2332 7.6632 11.0426C7.78605 10.782 7.9308 10.3442 7.98305 9.95094C8.12851 9.78218 8.32692 9.44891 8.45402 8.81343C8.56628 8.2535 8.51333 8.05014 8.43919 7.85879C8.43142 7.83831 8.42295 7.81854 8.4173 7.79595C8.38976 7.66744 8.42719 6.98536 8.52321 6.45579C8.58888 6.09286 8.50697 5.3211 8.00706 4.68139C7.69144 4.27821 7.08703 3.78253 6.00318 3.71334H5.39876C4.29585 3.78183 3.69214 4.27821 3.37652 4.68139C2.87661 5.3211 2.79329 6.09286 2.86037 6.45579C2.95569 6.98536 2.99523 7.66744 2.96699 7.79877C2.96134 7.81854 2.95216 7.83831 2.9451 7.85879C2.87026 8.05014 2.81871 8.2535 2.93027 8.81343C3.05737 9.44891 3.25578 9.78218 3.40124 9.95094C3.45349 10.3442 3.59823 10.7813 3.72039 11.0426C3.83336 11.2826 3.94916 11.5658 3.94916 11.8468C3.94916 12.1878 3.93645 12.1914 3.85455 12.2175C2.89568 12.5006 1.34581 13.0387 0.68985 13.3133C0.223831 13.5132 0.00070609 13.91 0.00070609 14.2341L0 14.2348ZM6.6662 15.2261C6.6662 15.116 6.77635 14.8943 7.07149 14.7679C7.85031 14.4424 9.75887 13.7843 10.9183 13.4426C11.5665 13.2392 11.5665 12.6814 11.5665 12.274C11.5665 11.7804 11.3878 11.3349 11.2127 10.9635C11.092 10.705 10.9366 10.2397 10.8823 9.83161L10.8533 9.61272L10.7086 9.44537C10.6288 9.35288 10.4282 9.06338 10.2913 8.37565C10.1839 7.83831 10.2312 7.71616 10.2729 7.60813L10.2736 7.60672L10.28 7.58836C10.2955 7.55023 10.3089 7.5121 10.3195 7.47468L10.3273 7.44785L10.3329 7.42031C10.4085 7.06656 10.3096 6.04696 10.2058 5.47291C10.1585 5.21448 10.2178 4.48297 10.7001 3.86656C11.1287 3.31863 11.7825 3.01148 12.6432 2.95288L13.3444 2.95358C14.3986 3.0256 14.9705 3.4888 15.2657 3.86656C15.7479 4.48297 15.8065 5.21448 15.7599 5.4715C15.6583 6.03143 15.5573 7.06726 15.6321 7.41678L15.6357 7.43231L15.6399 7.44785C15.6554 7.50786 15.6745 7.56153 15.6964 7.61519C15.7345 7.71475 15.7825 7.83902 15.6752 8.37494C15.5375 9.06338 15.3377 9.35147 15.2579 9.44326L15.1124 9.61131L15.0842 9.83161C15.0298 10.2404 14.8752 10.7036 14.753 10.9621C14.5942 11.3017 14.52 11.7225 14.52 12.2881C14.52 12.6948 14.52 13.2512 15.147 13.4503C16.3417 13.8034 18.2821 14.5031 18.9839 14.8102C19.1929 14.8999 19.2586 15.0002 19.2586 15.2247V17.0457H6.67043L6.6669 15.2247L6.6662 15.2261ZM0.740688 14.2348C0.742101 14.2058 0.787996 14.078 0.981465 13.9947C1.61624 13.7285 3.14634 13.1997 4.06355 12.9285C4.68914 12.7294 4.68914 12.1772 4.68914 11.8475C4.68914 11.4217 4.53804 11.0426 4.38976 10.7276C4.29373 10.5222 4.17511 10.155 4.13486 9.8542L4.10591 9.63531L3.96187 9.46797C3.91668 9.41643 3.76346 9.2053 3.65613 8.66797C3.57705 8.27468 3.60883 8.19277 3.63425 8.12711L3.63848 8.11722L3.64131 8.10734C3.65684 8.06921 3.66673 8.03884 3.6752 8.00848L3.68367 7.98094L3.68932 7.95341C3.76205 7.61166 3.65755 6.70857 3.58764 6.32304C3.55516 6.14158 3.60318 5.59295 3.95975 5.13681C4.27961 4.72869 4.77105 4.49851 5.42207 4.45332H5.97846C6.77423 4.50981 7.20282 4.85508 7.42312 5.13681C7.77899 5.59224 7.82771 6.14229 7.79523 6.32304C7.72039 6.73046 7.62295 7.62296 7.69214 7.94988L7.69568 7.96541L7.69921 7.98094C7.71333 8.0332 7.72957 8.0798 7.74793 8.12711C7.77334 8.19207 7.80512 8.27538 7.72674 8.66797C7.61871 9.20601 7.46549 9.41572 7.42101 9.46726L7.27696 9.63461L7.24801 9.8535C7.20777 10.1557 7.08914 10.5222 6.9917 10.7276C6.85402 11.0221 6.78976 11.3815 6.78976 11.8595C6.78976 12.1899 6.78976 12.7428 7.39629 12.9349C7.7797 13.0486 8.25702 13.2053 8.72869 13.3698C7.94987 13.6367 7.20706 13.9072 6.77776 14.0865C6.20018 14.3343 5.9241 14.8244 5.9241 15.2254C5.9241 15.3087 5.9241 15.4281 5.9241 15.5651H0.739276V14.2348H0.740688Z" fill="white"/>
</svg>
