<svg width="18" height="18" viewBox="0 0 18 18" fill="none" xmlns="http://www.w3.org/2000/svg">
<path d="M16.285 9.87083C15.7209 10.0208 15.1384 10.0967 14.5542 10.0967C12.775 10.0967 11.1042 9.405 9.84919 8.15C8.17586 6.47667 7.51669 4.01083 8.12919 1.71417C8.20586 1.42667 8.12336 1.12 7.91336 0.910001C7.70336 0.700001 7.39752 0.615001 7.10836 0.695001C5.69002 1.07417 4.39669 1.81833 3.36752 2.84667C0.119191 6.095 0.119191 11.3825 3.36752 14.6325C4.94169 16.2067 7.03502 17.0742 9.26086 17.0742C11.4867 17.0742 13.5792 16.2075 15.1525 14.6333C16.1825 13.6025 16.9275 12.3075 17.305 10.8908C17.3817 10.6033 17.2984 10.2967 17.0884 10.0867C16.8784 9.87583 16.5709 9.7925 16.285 9.87083ZM13.975 13.455C12.7159 14.7142 11.0417 15.4075 9.26169 15.4075C7.48086 15.4075 5.80669 14.7133 4.54669 13.4542C1.94836 10.855 1.94836 6.625 4.54669 4.02583C5.04836 3.52417 5.62836 3.1075 6.26336 2.79C6.07836 5.19417 6.94169 7.6 8.67169 9.33C10.395 11.0542 12.7775 11.93 15.2117 11.7392C14.8934 12.3717 14.4759 12.9525 13.975 13.455Z" fill="white"/>
</svg>
