<svg width="10" height="8" viewBox="0 0 10 8" fill="none" xmlns="http://www.w3.org/2000/svg">
<path d="M9.96003 3.8C8.95003 1.455 7.05003 0 5.00003 0C2.95003 0 1.05003 1.455 0.0400334 3.8C0.0125017 3.86308 -0.00170898 3.93117 -0.00170898 4C-0.00170898 4.06883 0.0125017 4.13692 0.0400334 4.2C1.05003 6.545 2.95003 8 5.00003 8C7.05003 8 8.95003 6.545 9.96003 4.2C9.98757 4.13692 10.0018 4.06883 10.0018 4C10.0018 3.93117 9.98757 3.86308 9.96003 3.8V3.8ZM5.00003 7C3.41503 7 1.91503 5.855 1.05003 4C1.91503 2.145 3.41503 1 5.00003 1C6.58503 1 8.08503 2.145 8.95003 4C8.08503 5.855 6.58503 7 5.00003 7ZM5.00003 2C4.60447 2 4.21779 2.1173 3.88889 2.33706C3.55999 2.55682 3.30365 2.86918 3.15227 3.23463C3.0009 3.60009 2.96129 4.00222 3.03846 4.39018C3.11563 4.77814 3.30611 5.13451 3.58582 5.41421C3.86552 5.69392 4.22189 5.8844 4.60985 5.96157C4.99781 6.03874 5.39995 5.99913 5.7654 5.84776C6.13085 5.69638 6.44321 5.44004 6.66297 5.11114C6.88274 4.78224 7.00003 4.39556 7.00003 4C7.00003 3.46957 6.78932 2.96086 6.41425 2.58579C6.03917 2.21071 5.53047 2 5.00003 2V2ZM5.00003 5C4.80225 5 4.60891 4.94135 4.44446 4.83147C4.28001 4.72159 4.15184 4.56541 4.07615 4.38268C4.00047 4.19996 3.98066 3.99889 4.01925 3.80491C4.05783 3.61093 4.15307 3.43275 4.29293 3.29289C4.43278 3.15304 4.61096 3.0578 4.80494 3.01921C4.99892 2.98063 5.19999 3.00043 5.38272 3.07612C5.56544 3.15181 5.72162 3.27998 5.8315 3.44443C5.94138 3.60888 6.00003 3.80222 6.00003 4C6.00003 4.26522 5.89468 4.51957 5.70714 4.70711C5.5196 4.89464 5.26525 5 5.00003 5Z" fill="white"/>
</svg>
