<svg width="16" height="16" viewBox="0 0 16 16" fill="none" xmlns="http://www.w3.org/2000/svg">
<path d="M14 2H3.33329C2.96463 2 2.66663 2.298 2.66663 2.66667V4.39333C2.66663 4.742 2.80863 5.08467 3.05529 5.33133L6.66663 8.94267V14C6.66663 14.2313 6.78663 14.4453 6.98329 14.5673C7.08996 14.6333 7.21129 14.6667 7.33329 14.6667C7.43529 14.6667 7.53729 14.6433 7.63129 14.5967L10.298 13.2633C10.524 13.15 10.6666 12.9193 10.6666 12.6667V8.94267L14.278 5.33133C14.5246 5.08467 14.6666 4.742 14.6666 4.39333V2.66667C14.6666 2.298 14.3686 2 14 2ZM9.52863 8.19533C9.40329 8.32 9.33329 8.48933 9.33329 8.66667V12.2547L7.99996 12.9213V8.66667C7.99996 8.48933 7.92996 8.32 7.80463 8.19533L3.99996 4.39333V3.33333H13.334L13.3353 4.38867L9.52863 8.19533Z" fill="#94ACAB"/>
</svg>
