<svg width="16" height="16" viewBox="0 0 16 16" fill="none" xmlns="http://www.w3.org/2000/svg">
<path d="M13.3334 2H2.66671C1.93137 2 1.33337 2.598 1.33337 3.33333V10C1.33337 10.7353 1.93137 11.3333 2.66671 11.3333H4.66671V14.7207L8.90071 11.3333H13.3334C14.0687 11.3333 14.6667 10.7353 14.6667 10V3.33333C14.6667 2.598 14.0687 2 13.3334 2ZM13.3334 10H8.43271L6.00004 11.946V10H2.66671V3.33333H13.3334V10Z" fill="white"/>
<path d="M6.33337 8C6.88566 8 7.33337 7.55228 7.33337 7C7.33337 6.44772 6.88566 6 6.33337 6C5.78109 6 5.33337 6.44772 5.33337 7C5.33337 7.55228 5.78109 8 6.33337 8Z" fill="white"/>
<path d="M9.66663 8C10.2189 8 10.6666 7.55228 10.6666 7C10.6666 6.44772 10.2189 6 9.66663 6C9.11434 6 8.66663 6.44772 8.66663 7C8.66663 7.55228 9.11434 8 9.66663 8Z" fill="white"/>
</svg>
