<svg width="16" height="18" viewBox="0 0 16 18" fill="none" xmlns="http://www.w3.org/2000/svg">
<path d="M13.8333 10.3217V7.33333C13.8333 4.6525 12.0125 2.39417 9.54583 1.715C9.30167 1.1 8.705 0.666668 8 0.666668C7.295 0.666668 6.69833 1.1 6.45417 1.715C3.9875 2.395 2.16667 4.6525 2.16667 7.33333V10.3217L0.744167 11.7442C0.5875 11.9 0.5 12.1117 0.5 12.3333V14C0.5 14.4608 0.8725 14.8333 1.33333 14.8333H14.6667C15.1275 14.8333 15.5 14.4608 15.5 14V12.3333C15.5 12.1117 15.4125 11.9 15.2558 11.7442L13.8333 10.3217ZM13.8333 13.1667H2.16667V12.6783L3.58917 11.2558C3.74583 11.1 3.83333 10.8883 3.83333 10.6667V7.33333C3.83333 5.03583 5.7025 3.16667 8 3.16667C10.2975 3.16667 12.1667 5.03583 12.1667 7.33333V10.6667C12.1667 10.8883 12.2542 11.1 12.4108 11.2558L13.8333 12.6783V13.1667ZM8 17.3333C9.0925 17.3333 10.0058 16.6383 10.3483 15.6667H5.65167C5.99417 16.6383 6.9075 17.3333 8 17.3333Z" fill="white"/>
</svg>
