<svg width="20" height="20" viewBox="0 0 20 20" fill="none" xmlns="http://www.w3.org/2000/svg">
<path d="M19.6667 7.33332H18.3334C18.2 7.33332 18.0667 7.43332 18.0334 7.56664L17.1 10.3333H16.2L15.3 8.83332C15.2334 8.73332 15.1334 8.66664 15 8.66664H13.6667V7.66664C13.6667 7.46664 13.5334 7.33332 13.3334 7.33332H11V6H12C12.2 6 12.3333 5.86668 12.3333 5.66668V3.66668C12.3333 3.46668 12.2 3.33336 12 3.33336H6C5.8 3.33336 5.66668 3.46668 5.66668 3.66668V5.66668C5.66668 5.86668 5.8 6 6 6H7V7.33332H4.33332C4.23332 7.33332 4.16664 7.36664 4.1 7.43332C4.03336 7.5 4 7.56664 4 7.66664V8.66664H1.66668C1.46668 8.66664 1.33336 8.79996 1.33336 8.99996V11H0.66668V10C0.66668 9.8 0.533359 9.66668 0.333359 9.66668C0.133359 9.66668 0 9.8 0 10V12.6667C0 12.8667 0.13332 13 0.33332 13C0.53332 13 0.666641 12.8667 0.666641 12.6667V11.6667H1.33332V14.3334C1.33332 14.5334 1.46664 14.6667 1.66664 14.6667H4.16664L5.39996 16.5334C5.46664 16.6 5.56664 16.6667 5.66664 16.6667H15C15.1333 16.6667 15.2333 16.6 15.3 16.4667L16.2 14.6667H17.1333L18.0333 16.4667C18.1 16.6 18.2 16.6667 18.3333 16.6667H19.6666C19.8666 16.6667 20 16.5334 20 16.3334V7.66668C20 7.46668 19.8667 7.33332 19.6667 7.33332ZM6.33332 4H11.6666V5.33332H10.6666H7.33332H6.33332V4ZM7.66668 6H10.3334V7.33332H7.66668V6ZM2 14V9.33332H4V14H2ZM14.7667 16H5.83332L4.66664 14.2342V9V8H7.33332H10.6666H13V9C13 9.2 13.1333 9.33332 13.3333 9.33332H14.8L15.6667 10.7778V14.2L14.7667 16ZM16.3333 14V11H17V14H16.3333ZM19.3333 16H18.5333L17.6666 14.3286V10.6679L18.5666 8H19.3333V16Z" fill="white"/>
</svg>
